<?xml version="1.0" standalone="no"?>
<!DOCTYPE svg PUBLIC "-//W3C//DTD SVG 20010904//EN"
 "http://www.w3.org/TR/2001/REC-SVG-20010904/DTD/svg10.dtd">
<svg version="1.0" xmlns="http://www.w3.org/2000/svg"
 width="512.000000pt" height="512.000000pt" viewBox="0 0 512.000000 512.000000"
 preserveAspectRatio="xMidYMid meet">
<metadata>
Created by potrace 1.14, written by Peter Selinger 2001-2017
</metadata>
<g transform="translate(0.000000,512.000000) scale(0.100000,-0.100000)"
fill="#000000" stroke="none">
<path d="M5 2560 l0 -2560 2555 0 2555 0 0 2560 0 2560 -2555 0 -2555 0 0
-2560z m4829 5 c-1 -1254 -2 -2282 -3 -2285 0 -3 -1024 -5 -2273 -5 l-2273 0
0 2280 c0 1254 3 2282 6 2285 4 3 1028 5 2276 5 l2268 0 -1 -2280z"/>
<path d="M2425 4250 c-153 -23 -216 -41 -310 -84 -214 -99 -328 -239 -388
-475 -18 -73 -21 -113 -21 -261 1 -156 4 -184 26 -257 34 -114 79 -184 183
-288 139 -139 253 -203 577 -320 239 -87 386 -159 474 -233 121 -101 161 -198
151 -367 -8 -149 -49 -237 -142 -307 -49 -37 -161 -85 -220 -95 -16 -3 -50 -9
-75 -13 -45 -9 -277 -6 -337 4 -118 19 -173 33 -292 72 -73 25 -173 65 -221
89 l-88 44 -15 -42 c-8 -23 -38 -110 -66 -193 -28 -83 -53 -158 -57 -167 -14
-37 345 -175 521 -201 59 -9 97 -15 130 -22 17 -3 125 -7 240 -9 306 -6 445
19 640 116 172 85 288 197 366 354 88 179 116 424 73 645 -36 189 -170 372
-369 505 -109 72 -191 111 -384 184 -409 155 -567 250 -622 373 -19 45 -23 69
-22 153 0 115 18 177 67 241 79 106 218 145 486 139 214 -5 399 -46 613 -136
48 -20 69 -25 72 -16 12 35 105 371 105 379 0 27 -324 140 -470 163 -25 4 -54
9 -65 11 -85 17 -477 27 -560 14z"/>
</g>
</svg>
